:SAMPLES-PER-SECOND 30
:FULLY-SPECIFIED
:DEGREES
135
root  1.12708 33.4813 13.9604 -50.0816 -75.7448 68.005
RightUpLeg  -19.8831 -31.7521 -44.7929
RightLeg  -3.95465 -15.8342 -2.65914
RightFoot  40.2382 -7.24381 15.5492
RightToes  -6.40286e-010 0 -3.6325e-017
Spine  30.2847 8.5954 26.7152
Spine1  -20.1297 15.1273 -33.5958
HEad  -13.178 -30.2439 -4.95645
LeftShoulder1  -0.663483 9.50559 -2.86464
LeftArm  -31.362 22.5864 -20.7829
LeftForeArm  -11.3642 -10.8304 -4.13713
LeftHand  -0.592763 3.31091 32.6902
RightShoulder  -0.0201945 -5.42071 -8.30497
RightArm  -39.8346 -2.91082 -9.38285
RightForeArm  -36.783 12.3815 1.20121
RightHand  -0.359191 -1.39451 -10.3288
LeftUpLeg  -53.479 38.309 -5.61706
LeftLeg  54.7446 -11.3815 -16.2859
LeftFoot  -0.881081 2.05415 -22.1516
LeftToes  -2.09187e-010 -4.93792e-011 -8.21189e-011
136
root  1.28433 32.9323 14.5987 -47.5195 -75.1062 65.242
RightUpLeg  -21.036 -32.9602 -45.9909
RightLeg  -1.15156 -13.4149 -4.16619
RightFoot  40.8722 -6.26509 13.3539
RightToes  -6.40286e-010 0 -3.6325e-017
Spine  30.3702 8.63051 26.1317
Spine1  -18.9798 15.4534 -33.4276
HEad  -13.7773 -31.9767 -4.29076
LeftShoulder1  -0.671095 10.702 -0.910679
LeftArm  -31.8967 18.9695 -15.5013
LeftForeArm  -9.20721 -13.7007 -4.41453
LeftHand  -0.570829 3.41932 33.2372
RightShoulder  -0.0318753 -5.11539 -7.23365
RightArm  -37.3522 -6.63838 -5.42073
RightForeArm  -39.7667 12.0288 1.12611
RightHand  -0.368742 -1.25423 -10.261
LeftUpLeg  -54.2092 36.6831 -5.81205
LeftLeg  57.838 -11.153 -17.9081
LeftFoot  -5.67003 1.16681 -22.6746
LeftToes  -2.09187e-010 -4.93792e-011 -8.21189e-011
137
root  1.42677 32.3106 15.0365 -44.6775 -75.2672 62.7151
RightUpLeg  -22.8478 -33.3491 -46.8902
RightLeg  2.87277 -11.7659 -5.19652
RightFoot  39.713 -7.02524 15.2818
RightToes  -6.40286e-010 0 -3.6325e-017
Spine  30.6225 8.66294 25.2566
Spine1  -18.8031 15.5446 -33.2054
HEad  -14.2638 -33.0702 -4.20316
LeftShoulder1  -0.622703 11.5702 0.899197
LeftArm  -32.6722 16.1409 -10.344
LeftForeArm  -6.18086 -17.645 -4.69584
LeftHand  -0.45199 3.92142 35.4183
RightShoulder  -0.0457679 -4.81564 -5.49211
RightArm  -36.6774 -11.2107 -1.29897
RightForeArm  -40.0624 13.6587 1.61902
RightHand  -0.385424 -1.11747 -10.4027
LeftUpLeg  -54.8377 34.163 -4.92237
LeftLeg  60.0665 -10.0485 -17.668
LeftFoot  -12.3238 -0.133342 -23.5879
LeftToes  -2.09187e-010 -4.93792e-011 -8.21189e-011
138
root  1.5782 31.6856 15.2014 -40.9196 -76.013 59.583
RightUpLeg  -24.3423 -29.4379 -49.1057
RightLeg  8.65992 -15.2297 -5.62056
RightFoot  36.491 -8.46272 19.5555
RightToes  -6.40286e-010 0 -3.6325e-017
Spine  31.095 8.6938 23.5195
Spine1  -19.3912 15.2188 -32.0723
HEad  -15.8653 -33.3057 -4.27911
LeftShoulder1  -0.569469 12.3894 2.39012
LeftArm  -34.4369 14.1833 -6.06889
LeftForeArm  -2.61147 -22.7711 -5.07821
LeftHand  -0.246473 4.62618 38.0823
RightShoulder  -0.0525675 -4.46638 -3.2976
RightArm  -37.1768 -16.4573 3.03367
RightForeArm  -37.1934 16.4175 2.88393
RightHand  -0.429996 -0.937307 -11.1546
LeftUpLeg  -55.8254 30.5226 -2.83655
LeftLeg  61.8187 -8.02256 -15.2373
LeftFoot  -18.1034 -1.35232 -24.4072
LeftToes  -2.09187e-010 -4.93792e-011 -8.21189e-011
139
root  1.73146 31.1125 15.0868 -36.3898 -77.1293 55.4459
RightUpLeg  -26.3797 -24.9522 -50.9641
RightLeg  15.2944 -18.3057 -5.81508
RightFoot  32.6733 -9.15623 22.9879
RightToes  -6.40286e-010 0 -3.6325e-017
Spine  31.6619 8.7493 20.812
Spine1  -19.7867 14.6578 -29.337
HEad  -19.1707 -32.6941 -4.17017
LeftShoulder1  -0.512213 12.9897 3.53552
LeftArm  -38.0266 12.7548 -3.02865
LeftForeArm  1.40661 -28.2136 -6.01445
LeftHand  0.114783 5.65784 40.577
RightShoulder  -0.0550217 -4.23708 -1.08386
RightArm  -36.9261 -21.6616 7.91136
RightForeArm  -33.3494 18.9136 4.39418
RightHand  -0.513564 -0.67688 -12.6233
LeftUpLeg  -57.2959 26.9293 0.349905
LeftLeg  63.9263 -5.71751 -11.8987
LeftFoot  -20.4622 -1.89236 -24.9062
LeftToes  -2.09187e-010 -4.93792e-011 -8.21189e-011
140
root  1.86516 30.6169 14.7655 -32.7742 -78.9646 51.7683
RightUpLeg  -30.3698 -25.6805 -48.9291
RightLeg  20.7712 -13.3126 -5.65914
RightFoot  29.1894 -9.2962 25.4084
RightToes  -6.40286e-010 0 -3.6325e-017
Spine  32.1882 9.00118 17.5523
Spine1  -19.598 14.1826 -25.262
HEad  -22.8563 -31.3217 -3.92374
LeftShoulder1  -0.389402 13.0813 5.05232
LeftArm  -40.9338 11.7384 -0.99723
LeftForeArm  4.50909 -32.9895 -7.05399
LeftHand  0.551274 6.74538 43.3137
RightShoulder  -0.0562084 -4.10855 0.883416
RightArm  -35.268 -25.9223 13.9544
RightForeArm  -30.7381 20.3892 5.30018
RightHand  -0.5943 -0.481693 -14.058
LeftUpLeg  -58.6247 25.1907 4.23508
LeftLeg  66.3205 -4.02772 -9.28888
LeftFoot  -20.2403 -1.86703 -25.1685
LeftToes  -2.09187e-010 -4.93792e-011 -8.21189e-011
141
root  1.96951 30.1816 14.2457 -30.5688 -81.4835 49.1493
RightUpLeg  -34.5782 -26.6113 -46.1966
RightLeg  25.4774 -6.36349 -3.50052
RightFoot  25.5537 -9.57073 28.7451
RightToes  -6.40286e-010 0 -3.6325e-017
Spine  32.7123 9.35331 13.7137
Spine1  -19.3855 13.6356 -20.5752
HEad  -25.0882 -29.1119 -3.8114
LeftShoulder1  -0.170223 12.8003 7.5856
LeftArm  -41.4621 11.0156 0.646537
LeftForeArm  6.87036 -36.362 -7.84791
LeftHand  0.85481 7.37546 45.8986
RightShoulder  -0.043101 -3.89901 2.56079
RightArm  -33.4929 -28.8852 21.1967
RightForeArm  -28.914 20.822 5.61097
RightHand  -0.621529 -0.507413 -14.7687
LeftUpLeg  -58.9647 25.3863 8.54875
LeftLeg  68.1566 -3.10857 -7.74601
LeftFoot  -19.6795 -1.77961 -25.6202
LeftToes  -2.09187e-010 -4.93792e-011 -8.21189e-011
142
root  2.05937 29.817 13.5179 -26.9466 -83.9247 44.831
RightUpLeg  -37.9847 -27.2926 -43.5702
RightLeg  29.6281 0.58161 0.12456
RightFoot  21.7308 -9.97374 33.2916
RightToes  -6.40286e-010 0 -3.6325e-017
Spine  33.3167 9.52608 9.01299
Spine1  -19.5645 12.5965 -14.9503
HEad  -25.6559 -25.8736 -4.06063
LeftShoulder1  0.0792695 12.5817 10.6429
LeftArm  -40.115 10.0737 2.12951
LeftForeArm  8.92289 -38.1507 -8.25341
LeftHand  1.0691 7.77985 47.5586
RightShoulder  -0.0134159 -3.60435 4.0185
RightArm  -32.3049 -30.8393 28.5446
RightForeArm  -26.6798 20.5839 5.67529
RightHand  -0.604719 -0.766411 -15.1521
LeftUpLeg  -58.0722 26.0386 13.2221
LeftLeg  68.843 -2.65757 -6.76912
LeftFoot  -19.3331 -1.78139 -26.6959
LeftToes  -2.09187e-010 -4.93792e-011 -8.21189e-011
143
root  2.16016 29.5736 12.6236 -14.8826 -85.6584 31.8087
RightUpLeg  -40.1318 -27.8199 -41.0581
RightLeg  33.2493 6.55044 4.36552
RightFoot  18.1476 -9.99555 37.2595
RightToes  -6.40286e-010 0 -3.6325e-017
Spine  33.8494 9.42915 3.75596
Spine1  -19.3758 11.0568 -7.56893
HEad  -25.9257 -21.5948 -4.68567
LeftShoulder1  0.282263 12.6013 13.1785
LeftArm  -38.9266 8.67695 3.03174
LeftForeArm  10.8978 -38.817 -8.33485
LeftHand  1.40076 8.44642 48.736
RightShoulder  0.0163044 -3.36632 5.34844
RightArm  -31.127 -32.1688 34.595
RightForeArm  -23.6482 20.0912 5.71711
RightHand  -0.618231 -0.953383 -16.1044
LeftUpLeg  -56.3411 26.1634 18.177
LeftLeg  68.2736 -2.49321 -6.10375
LeftFoot  -18.3723 -1.66608 -28.3653
LeftToes  -2.09187e-010 -4.93792e-011 -8.21189e-011
144
root  2.28764 29.468 11.6035 11.3655 -86.5357 4.57072
RightUpLeg  -41.8353 -28.3146 -38.0763
RightLeg  36.8101 11.4337 8.82134
RightFoot  14.923 -9.44703 39.4682
RightToes  -6.40286e-010 0 -3.6325e-017
Spine  34.1123 9.07231 -1.18389
Spine1  -17.9491 9.22309 0.750139
HEad  -27.0313 -16.6272 -5.40705
LeftShoulder1  0.409575 12.56 14.795
LeftArm  -39.1264 7.39797 3.12441
LeftForeArm  12.5025 -39.1473 -8.33539
LeftHand  1.73964 9.08033 50.0699
RightShoulder  0.0402404 -3.20839 6.65984
RightArm  -29.0784 -33.066 38.8034
RightForeArm  -20.0642 19.5905 5.83984
RightHand  -0.716701 -0.71845 -17.7353
LeftUpLeg  -54.2096 25.9605 23.2762
LeftLeg  66.5468 -2.45411 -5.46983
LeftFoot  -16.3929 -1.26883 -30.3105
LeftToes  -2.09187e-010 -4.93792e-011 -8.21189e-011
